<?xml version="1.0" encoding="utf-8"?>
<!-- Generator: Adobe Illustrator 22.0.1, SVG Export Plug-In . SVG Version: 6.00 Build 0)  -->
<svg version="1.1" id="Layer_1" xmlns="http://www.w3.org/2000/svg" xmlns:xlink="http://www.w3.org/1999/xlink" x="0px" y="0px"
	 width="250.1px" height="165.28px" viewBox="0 0 250.1 165.28" enable-background="new 0 0 250.1 165.28" xml:space="preserve">
<g>
	<path fill="#8E9090" d="M0.32,114.07c0.84-2.22,1.61-4.12,2.28-6.04c1.32-3.75,2.6-7.52,3.89-11.27c0.06-0.17,0.09-0.35,0.19-0.49
		c2.04-3.25,0.7-6.18-0.85-9.09c-0.35-0.65-0.63-1.34-0.92-2.03c-1.33-3.23-2.66-6.47-3.96-9.72c-0.35-0.88-0.6-1.8-0.9-2.7h28.23
		v33.5h23.58c0,2.42,0.03,4.69-0.05,6.95c-0.01,0.24-0.73,0.64-1.12,0.65c-3.6,0.02-7.2-0.08-10.8-0.04
		c-4.69,0.06-9.38,0.29-14.06,0.31c-4.6,0.02-9.19-0.17-13.79-0.19c-2.94-0.01-5.87,0.11-8.81,0.16
		C2.4,114.08,1.58,114.07,0.32,114.07 M221.66,106.27V72.76h28.39c-1.08,2.6-2.17,5.21-3.27,7.82c-0.22,0.52-0.53,1.01-0.74,1.54
		c-1.23,3.08-2.49,6.16-3.64,9.27c-0.24,0.64-0.29,1.48-0.09,2.12c0.8,2.55,1.73,5.05,2.62,7.57c1.41,3.99,2.84,7.97,4.26,11.95
		c0.1,0.28,0.15,0.58,0.27,1.07c-1.63-0.07-3.14-0.2-4.65-0.2c-5.44-0.01-10.88,0.06-16.32,0.03c-4.54-0.02-9.09-0.17-13.63-0.18
		c-5.09-0.01-10.19,0.02-15.28,0.12c-1.27,0.03-1.57-0.4-1.52-1.57c0.08-1.96,0.02-3.93,0.02-6.04H221.66z"/>
	<path fill="#B5A268" d="M217.6,102.4c-1.92-0.09-3.62-0.23-5.32-0.25c-9.7-0.07-19.4-0.1-29.1-0.17c-5.95-0.04-11.9-0.2-17.85-0.19
		c-5.66,0.01-11.32,0.14-16.98,0.25c-4.95,0.1-9.89,0.32-14.84,0.34c-2.93,0.01-5.87-0.34-8.8-0.41c-4.16-0.09-8.34-0.05-12.5-0.09
		c-4.61-0.04-9.21-0.18-13.82-0.16c-4.72,0.02-9.45,0.26-14.17,0.23c-4.24-0.02-8.48-0.35-12.73-0.39
		c-3.64-0.04-7.28,0.15-10.92,0.22c-2.5,0.05-4.99,0.09-7.49,0.11c-4.47,0.04-8.94,0.06-13.41,0.09c-2.02,0.01-4.04-0.01-6.06,0.03
		c-0.91,0.02-1.33-0.24-1.32-1.26c0.06-6.45,0.09-12.9,0.06-19.35c-0.01-2.98-0.18-5.96-0.27-8.94c-0.01-0.48,0-0.95,0-1.57
		c0.51,0,0.98,0,1.44,0c7.67-0.06,15.34-0.17,23.01-0.16c7.68,0.01,15.35,0.19,23.02,0.19c7.68,0,15.35-0.13,23.03-0.19
		c6.19-0.05,12.37-0.08,18.56-0.1c4.08-0.01,8.15,0.06,12.23,0.04c5.22-0.02,10.44-0.12,15.66-0.15
		c10.14-0.05,20.29-0.02,30.43-0.12c7.11-0.07,14.21-0.38,21.32-0.45c5.13-0.05,10.27,0.13,15.4,0.22c0.88,0.01,1.49,0.27,1.49,1.35
		c-0.03,4.34-0.02,8.68-0.04,13.02c-0.01,2.24-0.1,4.48-0.07,6.71c0.03,2.28,0.2,4.55,0.23,6.83
		C217.8,99.46,217.67,100.85,217.6,102.4"/>
	<path fill="#6A1B32" d="M126.58,0.03h70.01v44.27h-12.75v23.53h-15.15V29.98h12.96V14.45h-40.66c-0.04,0.37-0.11,0.71-0.11,1.04
		c-0.01,4.39,0.02,8.79-0.03,13.18c-0.01,0.99,0.3,1.3,1.27,1.27c2.1-0.06,4.2-0.02,6.4-0.02v37.95h-15.51V41.64h-6.44L126.58,0.03
		L126.58,0.03z M78.35,67.9H65.03V44.37H53.47V0.07h66.24v41.5h-6.54v26.28H98.29V29.91c1.57,0,3.17,0.01,4.77,0
		c2.51-0.02,2.16,0.28,2.17-2.16c0.02-3.91,0-7.82,0-11.73v-1.54H66.86v15.45h11.49L78.35,67.9L78.35,67.9z M78.4,104.53v1.69
		c0,7.69-0.02,15.37,0.04,23.06c0.01,0.69,0.36,1.54,0.85,2.04c6.1,6.26,12.24,12.48,18.41,18.67c0.46,0.46,1.26,0.81,1.91,0.81
		c15.95,0.04,31.89,0.04,47.84,0c0.65,0,1.45-0.35,1.91-0.81c6.21-6.21,12.39-12.45,18.53-18.74c0.42-0.43,0.67-1.22,0.67-1.84
		c0.04-7.78,0.03-15.55,0.03-23.33v-1.54h15.21v1.51c0,9.31-0.02,18.62,0.02,27.94c0.01,1.09-0.28,1.88-1.06,2.66
		c-5.39,5.42-10.73,10.88-16.09,16.33c-3.76,3.82-7.49,7.66-11.29,11.44c-0.46,0.46-1.26,0.8-1.91,0.8
		c-19.64,0.04-39.27,0.04-58.91,0c-0.61,0-1.38-0.32-1.8-0.76c-9.02-9.35-18.01-18.73-26.98-28.14c-0.41-0.43-0.76-1.12-0.76-1.7
		c-0.05-9.75-0.03-19.5-0.03-29.26c0-0.25,0.04-0.51,0.07-0.85H78.4z M113.13,121.04h19.84v-16.53h15.59
		c0.03,0.49,0.08,0.92,0.08,1.35c0,6.59,0.03,13.18-0.04,19.77c-0.01,0.68-0.38,1.53-0.87,2.02c-2.42,2.42-4.91,4.77-7.44,7.07
		c-0.49,0.44-1.3,0.76-1.96,0.77c-10.1,0.05-20.2,0.05-30.31,0c-0.65,0-1.45-0.33-1.93-0.78c-2.45-2.33-4.83-4.74-7.18-7.16
		c-0.36-0.37-0.67-0.96-0.67-1.45c-0.04-6.98-0.03-13.97-0.02-20.95c0-0.17,0.05-0.34,0.08-0.6h14.84L113.13,121.04L113.13,121.04z"
		/>
	<path fill="#FFFFFF" d="M48.77,80.5h-2.81v14.64h-2.68V80.5h-2.81v-2.44h8.3V80.5z M59.87,95.14h-2.73v-7.32h-3.05v7.32h-2.68
		V78.07h2.68v7.32h3.05v-7.32h2.73V95.14z M70.61,80.51h-4.64v4.76h3.68v2.44h-3.68v5h4.64v2.44h-7.32V78.07h7.32V80.51z
		 M78.98,78.07h2.68v17.08h-2.68V78.07z M93.56,95.14h-2.76l-3.34-12.37v12.37h-2.41V78.07h3.37l2.76,10.22V78.07h2.39V95.14z
		 M104.47,80.5h-2.8v14.64h-2.68V80.5h-2.81v-2.44h8.29V80.5z M114.43,80.51h-4.64v4.76h3.68v2.44h-3.68v5h4.64v2.44h-7.32V78.07
		h7.32V80.51z M125.6,93.07v-2.63c0-1.78-0.44-3.08-1.78-3.63c1.2-0.56,1.76-1.71,1.76-3.47V82c0-2.63-1.19-3.93-3.97-3.93h-4.05
		v17.08h2.68v-6.95h0.93c1.22,0,1.76,0.58,1.76,2.17v2.68c0,1.39,0.1,1.66,0.24,2.1h2.73C125.62,94.51,125.6,93.9,125.6,93.07z
		 M122.89,83.95c0,1.37-0.61,1.81-1.61,1.81h-1.05v-5.25h1.29c0.95,0,1.37,0.54,1.37,1.76V83.95z M137.31,95.14h-2.76l-3.34-12.37
		v12.37h-2.42V78.07h3.37l2.76,10.22V78.07h2.39V95.14z M146.66,78.07h-3.93l-2.73,17.08h2.46l0.47-3.1h3.29l0.46,3.1h2.71
		L146.66,78.07z M143.26,89.73l1.29-8.64l1.3,8.64H143.26z M158.68,80.5h-2.8v14.64h-2.68V80.5h-2.8v-2.44h8.29V80.5z M161.32,78.07
		H164v17.08h-2.68V78.07z M171.27,77.87c-2.63,0-4.08,1.56-4.08,4.29v8.88c0,2.73,1.44,4.29,4.08,4.29c2.63,0,4.07-1.56,4.07-4.29
		v-8.88C175.35,79.43,173.91,77.87,171.27,77.87z M172.66,91.22c0,1.22-0.54,1.68-1.39,1.68c-0.85,0-1.39-0.47-1.39-1.68V82
		c0-1.22,0.54-1.68,1.39-1.68c0.85,0,1.39,0.46,1.39,1.68V91.22z M187.03,95.14h-2.76l-3.34-12.37v12.37h-2.42V78.07h3.37
		l2.75,10.22V78.07h2.39V95.14z M196.38,78.07h-3.93l-2.73,17.08h2.46l0.46-3.1h3.29l0.46,3.1h2.71L196.38,78.07z M192.99,89.73
		l1.3-8.64l1.29,8.64H192.99z M208.92,95.14h-7.1V78.07h2.68V92.7h4.42V95.14z"/>
</g>
</svg>
