<?xml version="1.0" encoding="utf-8"?>
<!-- Generator: Adobe Illustrator 22.1.0, SVG Export Plug-In . SVG Version: 6.00 Build 0)  -->
<svg version="1.1" id="svg2" xmlns="http://www.w3.org/2000/svg" xmlns:xlink="http://www.w3.org/1999/xlink" x="0px" y="0px"
	 viewBox="0 0 495.6 166.5" style="enable-background:new 0 0 495.6 166.5;" xml:space="preserve">
<style type="text/css">
	.st0{stroke:#FFFFFF;stroke-width:0.89;}
	.st1{stroke:#000000;stroke-width:1.85;}
	.st2{font-family:'ArialMT';}
	.st3{font-size:32px;}
	.st4{letter-spacing:-2;}
</style>
<title>United_Nations_University</title>
<g id="layer1">
	<g id="g1048">
		<path class="st0" d="M206.7,140l0.1-45.2l-39.5-22.4l-1.6-0.9l0,0l1.7,1.3l0.2,40.7h6.7l-4.4,7.5l1.2-2.1L206.7,140z M203.2,112.3
			v13.4l-11.6-6.7l-11.6-6.7l11.6-6.7l11.6-6.7L203.2,112.3z M178.6,95.4V82l11.6,6.7l11.6,6.7l-11.6,6.7l-11.6,6.7V95.4z"/>
		<path class="st0" d="M204.7,143.5l-35.7-21.1l0.8-1.3l-4.4,7.5l-4.3-7.5l1.2,2.1l-35.4,20.2l38.7,22.6L204.7,143.5z M168.1,147.7
			v-13.4l11.6,6.7l11.6,6.7l-11.6,6.7l-11.6,6.7V147.7z M151.4,154.6l-11.6-6.7l11.6-6.7l11.6-6.7v26.8L151.4,154.6z"/>
		<path class="st0" d="M156.9,113.5h8.7h-1.9V72.9l1.9-1.4L125,94.6l0.1,45.3l35.4-20.1L156.9,113.5z M139.5,118.9l-11.6,6.7V98.8
			l11.6,6.7l11.6,6.7L139.5,118.9z M141.4,102.1l-11.6-6.7l11.6-6.7L153,82v26.8L141.4,102.1z"/>
		<polygon points="126.7,143.6 126.8,143.6 126.7,143.6 		"/>
		<path id="path4561" class="st1" d="M113.3,5.7v138.1"/>
		<g id="text873">
			<text transform="matrix(1 0 0 1 227.74 117.73)" class="st2 st3">UNITED N</text>
			<text transform="matrix(1 0 0 1 378.85 117.73)" class="st2 st3 st4">A</text>
			<text transform="matrix(1 0 0 1 397.82 117.73)" class="st2 st3">TIONS</text>
		</g>
		<g id="text873-3">
			<text transform="matrix(1 0 0 1 227.17 155.41)" class="st2 st3">UNIVERSIT</text>
			<text transform="matrix(1 0 0 1 397.86 155.41)" class="st2 st3">Y</text>
		</g>
	</g>
	<path d="M49.9,0C44.4,0,39,1.3,34.1,3.7l0.4,0.7c4.7-2.3,9.8-3.5,15-3.6v6.3c-4.2,0.1-8.3,1.1-12,2.9l0.4,0.7
		C41.5,9,45.5,8.1,49.6,8v5.7c-3.1,0.1-6.2,0.8-9,2.1l0,0c-2,1-3.9,2.3-5.5,3.8l-4.1-4c2-2,4.4-3.6,6.9-4.8l-0.4-0.7l0,0
		c-2.6,1.3-5,3-7.1,5l-4.5-4.5c2.6-2.5,5.5-4.5,8.6-6.1l-0.4-0.7c-6.9,3.4-12.5,9-15.9,15.9l0,0c-3.9,7.9-4.7,16.9-2.2,25.3l0.9-0.2
		c-0.9-3-1.4-6.1-1.4-9.2h6.4c0,2.6,0.4,5.2,1.2,7.7L24,43c-0.7-2.4-1.1-5-1.2-7.5h5.8c0,0.8,0.1,1.7,0.2,2.5
		c-0.3,0-0.5,0.1-0.8,0.2l-0.2,0.6c-0.4,0.1-0.6,0.7-0.6,0.7c-0.3,0.1-0.6,0.5-0.5,0.6s-0.2,0.2-0.2,0.2V41l-0.2,0.2v0.9
		c0.2,0,0.2,0.4,0.2,0.4c-0.4,0-0.3,0.5-0.3,0.5l-0.7,0.3l-0.2,0.2h-0.9l-0.2,0.3l0,0c-0.1-0.2-0.2-0.5-0.2-0.7l-0.8,0.2
		c0,0.1,0.1,0.2,0.1,0.2h-1.1L22,43.3l-0.4-0.1v-0.4h-0.5L21,43h-0.6c0,0.4-0.6,0.9-0.6,0.8s-0.5-0.5-0.3-0.6
		c0.2-0.1,0.4-0.1,0.6-0.2v-0.2h-1.4L18.7,43h-0.5v0.6l-0.2,0.1c-0.2,0.1,0,0.5,0,0.5c0.2,0.2,0,0.6,0,0.6c-0.2,0.2,0.2,0.6,0.2,0.6
		c0.3,0.1-0.2,0.3-0.2,0.3c0,0.2,0.1,0.4,0.3,0.5c-0.1,0.2-0.1,0.4,0.1,0.5c0,0,0,0,0.1,0v0.6l0.2,0.2v0.4l0.1,0.2h0.6v-0.9
		c-0.5-0.6,0.4-0.7,0.5-0.5s0.4,0.3,0.4,0.3c0.1,0.5,0.7,0.9,0.9,0.3s0.3-0.2,0.4,0c0.2,0.3,0.5,0.6,0.8,0.9h0.5l0.1,0.5
		c0.6,0,0.8,0,1,0.9c0.1,0.5,0.5,0.8,0.9,1h0.5c0-0.4,0.5,0.1,0.5,0.3s1,1,1,1l1,0.2l0.2,0.2c0.6,0.7,1.2,1.4,1.9,2.1l-4.6,4.5
		c-3.9-4-6.8-8.9-8.4-14.2l-0.8,0.2c1.7,5.6,4.7,10.8,8.9,14.9c2.8,2.8,6.1,5.1,9.8,6.9l0.4-0.7c-3.4-1.6-6.5-3.8-9.2-6.4l4.5-4.5
		c2.3,2.2,5,4,7.9,5.4l0.4-0.7c-2.9-1.3-5.5-3-7.7-5.2l0.8-0.8c0,0.1,0.1,0.2,0.1,0.3c0.1,0.5,0.3,0.4,0.3,0.4h2l0.7-0.6h1.8
		c0.9,0,0.4-1.3,0.2-1.3c-0.1-0.1-0.1-0.3-0.1-0.4c1.4,1.1,3,2,4.7,2.7L42,54c-1.9-0.8-3.7-1.9-5.3-3.2l-1-0.9l4.5-4.5
		c1.4,1.3,3.1,2.4,5,3l0,0c0.5,0.2,1,0.3,1.5,0.4c-0.1,0.1-0.1,0.2-0.1,0.2c0,0-0.3,0.4-0.3,0.4l-0.3,0.1l-0.2,0.3l-0.4,0.1
		l-0.1,0.8L45,50.8v0.3l-0.2,0.1v0.2h-0.4l0.2,0.5l0.3,0.1c0.5,0.1,0.3,0.7,0.3,0.7h0.3l0.1,0.4l0.3,0.6c0.1,0.4,0.4,0.3,0.6,0.3
		s0.3,0.4,0.3,0.4h1.4c0,0-0.1,0.1,0.2,0.2c0.4,0.1,0.8,0.1,1.2,0.1v0.6c-2.6,0-5.2-0.6-7.6-1.6l-0.4,0.7c2.5,1.1,5.3,1.6,8,1.7V62
		c-3.7-0.1-7.4-0.9-10.8-2.4l-0.4,0.7c3.5,1.6,7.4,2.4,11.2,2.5v6.3c-5-0.1-9.9-1.2-14.4-3.3l-0.4,0.7c17.5,8.3,38.4,1,47-16.3l0,0
		c4.3-8.9,4.7-19.2,1-28.4C79.1,13,72,6.1,63.2,2.5l0,0C58.9,0.8,54.5,0,49.9,0z M50.3,0.9c4.3,0,8.5,0.9,12.5,2.5l0,0
		C67,5,70.8,7.4,74,10.6l-3.8,3.8c-0.1,0-0.2,0-0.4,0c-0.2-0.1,0.1-0.4,0.1-0.4v-0.3l-0.2-0.2c0,0-0.6,0.1-0.6,0s-0.1-0.6-0.1-0.6
		v-0.6l-0.2-0.1V12h-0.4v-0.4L68,11.5l-0.2-0.1v-0.4h-0.8l-0.2-0.4l-0.3-0.4l-0.9-0.1l-0.3-0.3H65l-0.2-0.1l-0.1,0.2H64v0.2
		c-0.4,0.1-0.8,0.1-1.2,0.1c-0.7-0.4-1.4-0.7-2.2-1L60.2,10c0.6,0.2,1.2,0.5,1.8,0.8c0,0.1-0.1,0.2-0.2,0.2s-0.1,0.5-0.1,0.5
		c0.2,0,0.4,0,0.6,0c0.1,0,0.1,0.4,0.1,0.4c0.5,0,0.8,0.7,0.7,0.9s0.2,0.2,0.2,0.2c0,0.2,0,0.5-0.1,0.7c-0.1,0.1,0.5,0.2,0.6,0.5
		c0.1,0.3,0,0.7-0.2,1c-0.1,0,0.3,0.1,0.2,0.3s0.1,0,0.2,0.3s0.1,0.9,0.1,0.9h0.5c0.1-0.5,1-0.5,1.1-0.4c0.5,0.3,0.9,0.8,1.1,1.4
		c0,0.2-0.4,0.2-0.4,0.2V18l-1.2,1.2c-0.1-0.1-0.3-0.1-0.3-0.1c-0.1,0-0.1-0.8-0.1-0.8s0.3-0.2,0.5-0.1c0.1,0.1-1.2-1.8-1.5-1.6
		c-0.3,0.2-0.9-0.2-0.9-0.5c0-0.3-1.3-1.4-1.3-1.4s-0.4-0.3-0.5-0.1s-0.2,0.4,0,0.5s0.2-0.2,0.4,0.1s0.7,0.6,0.5,0.8
		c-0.1,0.1-0.2,0.2-0.4,0.3l0.2,0.3h0.4l0.1,0.6c0,0,0.4,0.2,0.5,0.5C63,17.8,63,18,63,18.1c-0.8-0.6-1.6-1.1-2.5-1.6
		c0-0.1,0-0.1,0-0.2c-0.1-0.2,0.3-0.4,0.5-0.1h0.3l0.1-0.3l-0.5-0.4h-0.4c0,0,0,0.3-0.3,0.2s-0.1-0.1-0.3-0.1s-0.2,0.4-0.1,0.5
		c-0.6-0.3-1.1-0.5-1.7-0.8l0,0c-2.5-1-5.1-1.5-7.7-1.6v-3.2c0.2,0,0.3-0.1,0.4-0.2c0-0.1,0.1-0.2,0.3-0.2s0-0.5-0.2-0.4
		c-0.1,0-0.3,0-0.4-0.1V8c3.4,0.1,6.7,0.7,9.8,2l0.3-0.8c-3.2-1.3-6.7-2-10.1-2L50.3,0.9L50.3,0.9z M56.3,2.4L56,2.6l-0.2-0.1
		l-0.1,0.2l0.3,0.2H56H56l0.4-0.2L56.3,2.4L56.3,2.4z M58,3.2l-0.3,0.2l-0.2-0.2l-0.2,0.1l0.2,0.2l0.1,0.1l0.1-0.1l0.3-0.3
		C58.1,3.4,58,3.2,58,3.2z M23.6,3.4c-3.5,1.4-7.3,2.8-9.6,6.4c-1.4,2.1-1.5,4.6-2.6,6.8c2-1.8,4.2-3.2,5.9-5.4
		C19.3,8.6,21,5.7,23.6,3.4L23.6,3.4z M76.3,3.4c2.6,2.3,4.3,5.2,6.3,7.8c1.7,2.2,3.9,3.5,5.9,5.4c-1.1-2.2-1.2-4.7-2.6-6.8
		C83.6,6.2,79.8,4.8,76.3,3.4L76.3,3.4z M55.4,3.8c-0.2,0-0.3,0.1-0.3,0.1c0,0.1-0.2,0.2-0.2,0.2L54,4.2c-0.1,0.2-0.5,0.4-0.5,0.2
		l0,0c-0.1-0.3-0.5,0.4-0.1,0.5C53.7,5,54,5,54.3,4.9l0.1-0.2h1.8c0.1-0.1,0.2-0.2,0.2-0.4c0.2-0.1,0.4-0.1,0.6-0.1
		c0.2,0.1,0-0.5-0.1-0.4c-0.2,0-0.4,0-0.5,0h-0.6C55.7,3.7,55.6,3.7,55.4,3.8L55.4,3.8z M52.3,4.5l-0.5,0.2L51.4,5l-0.5,0.1
		l-0.3,0.3l1.2,0.1l0.2,0.4L52.7,6l0.5,0.5c0.5,0.1,0.6-0.1,0.3-0.3l0,0l-0.5-0.4V5.4l-0.2-0.2l-0.1-0.5L52.3,4.5L52.3,4.5z
		 M14.1,8.2c-1.8,0.6-3.5,1.6-4.7,3.1C6.5,14.4,6.8,19,7.2,23.1c0.1,1.2,0.1,2.4-0.1,3.6c0.9-1.8,2.3-3.4,3.9-4.6
		c3.7-2.8,7.7-6.3,7.8-11c-1.2,3.4-4.9,4.8-7.4,7.1c-1.3,1.2-2.3,2.6-2.9,4.2l-0.1-0.1c0.3-1.3,0.9-2.6,1.3-3.9
		C10.8,14.9,10.6,10.6,14.1,8.2L14.1,8.2z M85.9,8.2c3.5,2.4,3.3,6.7,4.4,10.3c0.4,1.3,1,2.5,1.3,3.9l-0.1,0.1
		c-0.6-1.6-1.6-3-2.9-4.2c-2.5-2.3-6.2-3.7-7.4-7.1c0,4.7,4.1,8.3,7.8,11c1.6,1.2,3,2.8,3.9,4.6c-0.2-1.2-0.2-2.4-0.1-3.6
		c0.4-4.1,0.6-8.7-2.2-11.8C89.3,9.8,87.7,8.7,85.9,8.2L85.9,8.2z M66.5,8.9c-0.3,0-0.7,0.2-0.7,0.4c0.1,0.2,0.2,0.4,0.5,0.4
		l0.5,0.2c0,0,0.7,0.8,0.6,0.4c0-0.5-0.3-1.1-0.8-1.3C66.7,8.9,66.6,8.9,66.5,8.9z M55.3,9.3l-0.1,0.3l0.2,0.1l0.1-0.3L55.3,9.3z
		 M56,9.7c0,0-0.2,0.3-0.4,0.3l0.4,0.2c0.2,0,0.4,0.1,0.5,0.3c0,0.1,0.4,0.1,0.4,0.1v-0.3L56.6,10l-0.2-0.2C56.4,9.8,56,9.8,56,9.7
		L56,9.7L56,9.7z M55.7,10C55.5,9.9,55.4,9.9,55.7,10C55.6,10,55.6,10,55.7,10z M54.5,9.9v0.2h0.3l0.2,0.4l0.2-0.1L54.9,10l0,0h-0.1
		L54.5,9.9z M46.2,10.8c-0.2,0-0.4,0-0.4,0.1c0,0.1,0.3,0.4,0.3,0.4s0.5,0,0.6,0.1s0.4,0.1,0.4,0s0.2-0.3-0.1-0.3s-0.2-0.2-0.4-0.3
		C46.5,10.8,46.4,10.8,46.2,10.8z M74.6,11.2c3.1,3.2,5.6,6.9,7.3,11.1l0,0c1.6,3.9,2.5,8.1,2.5,12.4H78c-0.1-3.4-0.7-6.7-2-9.9
		c-0.2-0.5-0.4-0.9-0.6-1.3c0.1-0.2,0.2-0.4,0.4-0.3s0.1-0.8,0.1-0.8s-0.5-0.4-0.5-0.5s-0.5-0.5-0.5-0.7s-0.5-0.4-0.4-0.6
		s-0.2-0.5-0.2-0.5l-0.5-0.5l-0.1-0.3h-0.4l-0.9-1v-0.3h-0.2v-0.4L72,17.3h-0.4l-0.7-1l-0.1-0.4h-0.4l0.1-0.6L74.6,11.2L74.6,11.2z
		 M55.3,11.2v0.3h0.4l-0.1-0.3L55.3,11.2L55.3,11.2z M25.3,11.2l4.5,4.5c-2.1,2.2-3.9,4.6-5.2,7.3c-1.7,3.6-2.7,7.6-2.7,11.6h-6.4
		c0.1-5.1,1.3-10.1,3.5-14.6l0,0C20.6,16.7,22.7,13.8,25.3,11.2L25.3,11.2z M57,12.8L57,12.8c-0.1,0,0.1,0.1,0.2,0.3s0,0.6,0.3,0.6
		s0.4,0.1,0.4,0.3s0.4,0.2,0.4,0.2l0.3,0.1l0.9,0.7v-0.3c0,0,0-0.3-0.2-0.3s-0.5-0.2-0.4-0.4s-0.6-0.3-0.6-0.3s-0.6-0.6-0.4-0.5
		s0.1-0.2,0.1-0.2c-0.2,0-0.4,0-0.5,0c-0.1,0-0.1-0.4-0.1-0.4C57.3,12.8,57.1,12.8,57,12.8L57,12.8z M37.4,13.1l-0.2,0.1l0.2,0.2
		l0.2-0.2L37.4,13.1z M6.6,14.6c-0.1,0-0.1,0-0.2,0.1c-2.6,3-4,6.7-4.1,10.6c0,5.1,3,8.7,3.3,13.5c0.8-5,5-8.6,7.2-13
		c0.8-1.8,1.4-3.6,1.6-5.6c-0.3,0.8-0.8,1.6-1.5,2.2c-2.9,2.7-6.2,5.3-6.9,9.2c-0.1,0.5-0.2,1.1-0.3,1.6c-0.1,0.1-0.1-0.1-0.2-0.1
		L6,28.4C6.3,23.8,3.9,18.7,6.6,14.6L6.6,14.6z M93.3,14.6c2.7,4.1,0.2,9.2,0.6,13.8l0.3,4.7c0,0,0,0.2-0.2,0.1
		c-0.1-0.5-0.2-1.1-0.3-1.6c-0.7-3.8-4-6.5-6.9-9.2c-0.7-0.6-1.2-1.4-1.5-2.2c0.2,1.9,0.8,3.8,1.6,5.6c2.2,4.4,6.5,8,7.2,13
		c0.4-4.8,3.3-8.4,3.3-13.5c-0.1-3.9-1.5-7.7-4.1-10.6C93.5,14.6,93.4,14.5,93.3,14.6L93.3,14.6z M49.5,14.6v6.3
		c-1.9,0.1-3.8,0.5-5.6,1.3l0.4,0.8l0,0c1.6-0.8,3.4-1.2,5.2-1.2v5.7c-0.7,0-1.5,0.2-2.2,0.4l0,0v-0.4l0.2-0.1l-0.3-0.1l-0.2,0.3
		L47,27.9L46.6,28v0.2h-0.2v0.2c-0.5,0.3-1,0.6-1.5,1l-4.1-4c1-1,2.2-1.8,3.5-2.4l-0.4-0.7c-1.4,0.6-2.6,1.5-3.7,2.5l-4.5-4.5
		C39.4,16.7,44.4,14.7,49.5,14.6z M50.4,14.6c2.5,0,5,0.6,7.4,1.5c0.6,0.3,1.3,0.5,1.9,0.9c0,0,0.1,0.1,0.1,0.1c1,0.5,2,1.2,2.9,1.9
		l0,0c0,0.2,0.2,0.3,0.3,0.4h0.2l0.3,0.3v0.3c0.2-0.1,0.6,0.2,0.7,0.5l-4.4,4.4c-1.3-1.2-2.7-2.1-4.3-2.8c-1.6-0.7-3.3-1-5.1-1.1
		C50.4,20.9,50.4,14.6,50.4,14.6z M30.4,16.2l4.1,4c-1.6,1.7-3,3.7-4,5.8l0,0c-1.3,2.7-1.9,5.6-2,8.5h-5.7
		C22.8,27.7,25.6,21.1,30.4,16.2L30.4,16.2z M66.8,18.9c0.5,0.3,0.9,1,0.8,1.1c-0.1,0.1,0.4,0.1,0.4,0.1c0.1-0.7,0.7-0.4,0.7-0.2
		c0,0.2,0.2,0.7,0.2,0.7l0.2,0.3l0.2,0.2h0.4l0.1,0.2l0.5,0.1c0.2,0.2,0.3,0.3,0.4,0.5c0,0.1,0.6,0.1,0.7,0.1c0.2,0,0.3,0.2,0.4,0.3
		c0.1,0.2,0.1,0.3,0.2,0.5c0,0,0.4,0.1,0.5,0.2c0.1,0.2,0.1,0.3,0.2,0.5l0.4,0.3v0.3h0.4l0.1,0.4h0.6l0.3-0.2
		c0.1-0.1,0.2-0.1,0.3-0.2c0.1,0.3,0.3,0.6,0.4,0.9c1.2,3,1.9,6.3,1.9,9.5h-5.7c0-1-0.1-2-0.3-3c0-0.2,0.1-0.3,0-0.3
		s0.1-0.6,0.1-0.6c0.1-0.2,0.1-0.4,0-0.6c-0.1-0.3,0-0.5,0.2-0.8l-0.3-0.2h-0.3h-0.2l-0.2-0.7l0,0h0.2v-0.2l-0.3-0.1l-0.2-0.5v-0.7
		l-0.2-0.2l0.1-0.3l-0.3-0.1l0.2-0.5l-0.2-0.5h-0.4c-0.2-0.3-0.3-0.7-0.5-1c0,0,0.1-0.1,0.2-0.1l0.3-0.1V24l-0.4-0.2l-0.1-0.4
		c0,0-0.4,0.1-0.4,0.3c0,0,0,0.1-0.1,0.1c-0.2-0.4-0.5-0.8-0.8-1.2c0,0,0,0,0-0.1c0.2-0.2,0.1-0.4-0.2-0.5S67,22,66.9,21.7
		c0-0.2-0.2-0.3-0.3-0.4l-0.1-0.4l-0.3,0.2l-0.4-0.5l0.1-0.4c-0.1,0-0.2-0.1-0.2-0.2L66.8,18.9L66.8,18.9z M69.1,24.4L69.1,24.4
		C69.1,24.4,69.1,24.4,69.1,24.4L69.1,24.4z M43.9,19.8L43.8,20l0.2,0.2l0.1-0.2L43.9,19.8z M43.1,20v0.4h0.5c0.2,0-0.2-0.2-0.2-0.2
		S43,20.1,43.1,20L43.1,20z M66.8,20h-0.2v0.3h0.2L66.8,20L66.8,20z M35.1,20.9l4.5,4.5c-0.9,1-1.7,2.1-2.3,3.3
		c-0.2,0-0.3,0-0.3,0.2c-0.1,0.3-0.6,0.2-0.6,0.2l-0.1,0.2l-0.4,0.1l-0.1,0.2l-0.4,0.1h1.1c0.3,0-0.1,0.6-0.3,0.6h-0.5l-0.2,0.2
		h-0.5l-0.2,0.3h-0.7c0,0-0.4,0.3-0.4,0.4s-0.1,0.4-0.2,0.4s-0.3,0.3-0.2,0.4s-0.2,0.5-0.2,0.5l-0.1,0.4l-0.2,0.1v1l-0.4,0.3v0.4
		l-0.2,0.2h-2.9C29.4,29.5,31.5,24.6,35.1,20.9L35.1,20.9z M64.8,20.9c0.2,0.1,0.1,0.2,0.3,0.3c0.1,0,0.1,0.1,0.2,0.1l0.3,0.4
		l-0.1,0.1c0,0.4,0.2,0.3,0.4,0.3l0.2,0.2c0,0.2,0,0.6,0.4,0.5l0,0c0.4,0.6,0.9,1.2,1.3,1.9l0,0l0,0l0.2,0.3c0,0-0.1,0.1-0.1,0.2
		l-0.6,0.1v0.6L67,26v0.4h0.4c0,0,0,0.4,0.1,0.2s1,0,0.9,0.5c0,0.2,0.9,0.6,0.8,1.2c0.1,0,0.1,0,0.2,0.1c0.2,0.5,0.3,1,0.5,1.5
		L69.8,30c0,0,0.1,0.1,0.1,0.1c0.1,0.4,0.2,0.9,0.3,1.3s-0.1,0.8-0.3,0.9c-0.4,0.2,0,0.1,0,0.1l-0.1,0.8c0.1,0.4,0.3,0.2,0.4,0
		c0.1-0.1,0.1-0.1,0.2-0.2c0,0.5,0.1,1.1,0.1,1.6h-4.2l0.1-0.1l0.2-0.5l0.6-0.2l0.1-0.5h-0.3c0,0,0.4-0.7,0.5-0.7c0.5,0,1,0,1.5-0.1
		c0.2-0.2,0.3-0.5,0.3-0.8c0-0.1,0.3-0.2,0.4-0.2c0.2-0.1,0.3-0.3,0.4-0.5c0.1-0.1-0.2-1-0.3-0.9c-0.1,0.1-0.3,0.2-0.5,0.2l-0.1,0.4
		L69,31.1c0,0.1,0,0.2,0,0.4c0,0.2-0.4,0.4-0.4,0.4L68.5,32c-0.3,0-0.7,0-1,0c-0.1-0.1-0.2-0.3-0.1-0.4c0-0.1,0.1-0.1,0.2-0.1
		c0.2,0,0-0.6,0-0.6h0.3c0,0,0-0.7,0.2-0.7s0-0.2-0.2-0.3s-0.3-0.5-0.5-0.4c-0.2,0-0.5,0-0.7,0l-0.1,0.2l-0.4,0.1c0,0,0,0.3,0,0.4
		c-0.2,0.2-1,0.8-0.7-0.1l0.1-0.2v-0.3h-0.6c0,0-0.3-0.1-0.3-0.2c0-0.1,0-0.2,0-0.3L63.9,28L63,27.9l-0.1-0.2l-0.5-0.1l-0.2-0.1
		c-0.2-0.4-0.5-0.8-0.8-1.2c0,0,0-0.1,0-0.1c0-0.1-0.4-0.7-0.6-0.7l-0.2-0.3L64.8,20.9L64.8,20.9z M68.3,21.4c0,0-0.1,0-0.1,0.1
		s0.2,0.2,0.1,0.4c0,0.1,0,0.3,0.1,0.3c0,0,0.1,0,0.1,0c0.1,0,0.3,0.1,0.4,0.1c0.1,0.1,0.3,0.2,0.4,0.3l0.4-0.1c0,0,0-0.4-0.1-0.2
		s-0.2-0.2-0.4-0.2s-0.2-0.1-0.4-0.3s-0.1-0.2-0.3-0.3C68.4,21.4,68.4,21.4,68.3,21.4z M50.4,21.7c1.6,0,3.2,0.4,4.8,1
		c1.5,0.6,2.8,1.5,4,2.6l-0.2,0.2c-0.1-0.1-0.5-0.2-0.5-0.3s-0.3-0.3-0.3-0.1s-0.2,0.3-0.3,0.2s-0.3,0.2-0.3,0.2s-0.1,0.2,0.2,0.3
		s0.6-0.1,0.6,0.1c0,0.1,0,0.1,0,0.2l-1.4,1.4c-0.1,0-0.3,0-0.4,0c-0.1,0.3-0.6,0-0.5-0.2c0.1-0.1,0.1-0.2,0.1-0.4H56l-0.2,0.4
		c-0.5,0-0.6,0.3-0.5,0.5s-0.2,0-0.2,0.2s0,0.2,0.2,0.4s-0.1,0.1,0,0.3s0.3,0.1,0.4,0.1l-0.3,0.3c-0.2,0-0.4,0-0.5,0
		c0,0.1,0,0.1-0.1,0.2c-0.6-0.5-1.2-0.9-1.9-1.2c0.1-0.1,0.3-0.1,0.4-0.3c0.1-0.3,0.2-0.7,0.2-1c0,0-0.6,0-0.6,0.2s-0.4,0.3-0.4,0.3
		s-0.3,0.1-0.2,0.2s-0.2,0.2-0.2,0.2c0,0.1,0,0.1,0,0.2c-0.6-0.2-1.2-0.3-1.8-0.3L50.4,21.7L50.4,21.7z M69.4,23H69
		c0.1,0.1,0.3,0.2,0.3,0.4s-0.1,0.2,0.2,0.3s0.3,0,0.4,0.1c0.1,0.2,0.1,0.4,0,0.6c0,0.2,0,0.4,0.2,0.4s0.2,0,0.2,0.1
		s0.2-0.4,0.2-0.4c-0.1-0.1-0.2-0.3-0.3-0.5c-0.1-0.2-0.1-0.4-0.2-0.6c0-0.1-0.2-0.1-0.3-0.2S69.4,22.9,69.4,23L69.4,23z M65.9,23.1
		h-0.3v0.2h0.3V23.1L65.9,23.1z M66.2,23.4v0.2h0.2v-0.2H66.2z M65.9,23.7c-0.2,0.2-0.4,0.2-0.6,0.2c0,0-0.1,0.7-0.3,0.8h-0.5
		c0.1,0.1,0.1,0.2,0.2,0.3c0.1,0.1,0.4,0.3,0.1,0.5s0,0.1,0,0.1s0,0.8-0.3,0.7S64,26.6,64,26.7s1.3,0.2,1.1,0s0.1-0.4,0.1-0.4
		s0.9,0.1,1,0.1s0.3,0,0.2-0.2S66,26.1,66,26.1c-0.3,0.1-0.6,0-0.8-0.1c-0.4-0.2,0.1-0.3,0.2-0.3s0.4-0.2,0.2-0.4s0-0.5,0-0.4
		s0.4,0.2,0.5,0.1c0.1-0.2,0-0.4-0.2-0.5c-0.2-0.1,0.3-0.2,0.2-0.4C65.9,24,65.8,23.9,65.9,23.7L65.9,23.7z M66.6,24.8V25h0.2v-0.2
		H66.6z M67.1,24.9L67,25.1l0.2,0.1l0.1-0.2C67.3,25,67.1,24.9,67.1,24.9z M70.5,25.2c-0.1,0,0.1,0.4,0,0.5s-0.2,0.2-0.3,0.3
		s0.2,0.2,0.2,0.4s0.1,0.7,0.1,0.7s0.2,0.1,0.3,0.2s0,0.4,0.1,0.5s0.3,0.2,0.2,0.3c0,0.1-0.1,0.3-0.1,0.4l0.1,0.3l0.3,0.2
		c0,0,0.1-0.9-0.1-0.9s-0.1-0.5-0.1-0.5s0.2-0.7-0.1-0.7s-0.1-0.4-0.2-0.5s-0.1-0.6-0.1-0.8S70.8,25.3,70.5,25.2
		C70.4,25.1,70.6,25.2,70.5,25.2L70.5,25.2z M61.9,25.9h-0.4v0.2h0.4V25.9L61.9,25.9z M56.5,25.9c-0.1,0-0.1,0-0.2,0L55.7,26v0.2
		h0.4c0,0,0.2,0.1,0.2,0.2s0.2,0.2,0.4,0.2c0.2-0.1,0.4-0.2,0.5-0.3c0,0,0.2-0.5,0-0.5s-0.4,0.2-0.5,0s-0.1-0.1-0.2-0.1L56.5,25.9z
		 M40.2,25.9l3.5,3.5h-0.3c-0.1,0.3-0.5,0-0.5,0c-0.1-0.2-0.6,0-0.6,0c0,0.4-0.7-0.2-0.7-0.2l-1.2-0.9c-0.7-0.7-1.8,0.2-1.8,0.4
		s-0.2,0.3-0.5,0.2C38.7,27.8,39.4,26.8,40.2,25.9L40.2,25.9z M54.2,26L54,26l0.1,0.3h0.2L54.2,26L54.2,26z M55.4,26h-0.8v0.2h0.8
		V26z M48.7,26.1v0.2h0.2v-0.2H48.7z M50.5,26.1v0.2h0.2v-0.2L50.5,26.1L50.5,26.1z M51,26.2v0.2h0.2v-0.2L51,26.2L51,26.2z
		 M48.1,26.3v0.2h0.2v-0.2H48.1z M54,26.3h-0.1l0.1,0.2H54L54,26.3z M62.6,26.4l-0.1,0.2l0.2,0.1l0.1-0.2L62.6,26.4z M59.9,26.4
		l0.4,0.1l0.5,0.6L60.4,27h-0.3h-0.5c-0.3,0.2-0.5,0.5-0.6,0.8c-0.2,0.5-0.8,0-0.8-0.4l0.9-1h0.2C59.5,26.5,59.7,26.5,59.9,26.4
		L59.9,26.4z M51.5,26.5v0.3h0.3v-0.2L51.5,26.5z M47.9,26.5v0.2l0.3,0.1l0-0.2L47.9,26.5z M47.8,26.8h-0.2V27h0.2V26.8z M52,26.8
		h-0.2V27H52V26.8z M63.2,26.9c-0.1,0-0.3,0-0.4,0c-0.2,0-0.1,0.2,0,0.4l0.4-0.1c0,0,0.3-0.2,0.2-0.2S63.3,26.8,63.2,26.9L63.2,26.9
		z M60.8,27.1l0.4,0.6c0,0.1,0,0.2,0,0.3c0.1,0.5,0.3,0.8-0.1,0.8c-0.2,0-0.4-0.1-0.4-0.3c0,0-0.3-0.1-0.3,0s-0.1,0.4,0,0.6
		s-0.2,0.4-0.2,0.2s-0.4-0.4-0.3-0.5s-0.5-0.8,0.1-0.9s0-0.4,0.2-0.5l0.3-0.2h0.3L60.8,27.1L60.8,27.1z M1.4,27.2
		c-0.5,1.2-0.9,2.5-1.1,3.8c-0.5,3.4-0.2,6.8,0.9,10c1.1,3.9,5,6.6,6.9,10.2l0.3,0.2C8,49.6,8,47.6,8.5,45.8c1-2.9,1.8-5.9,2.5-8.9
		c0.6-2.4,0.8-4.8,0.6-7.3c-0.3,1.2-0.7,2.4-1.3,3.5c-2.6,4-5.3,8.7-3.5,13.7c0,0.1-0.1,0.1-0.2,0.1c-0.6-1.7-1-3.5-1.4-5.4
		c-1.3-4.7-4.9-8.7-3.9-14.2L1.4,27.2z M98.6,27.2c1.1,5.5-2.6,9.5-3.9,14.2c-0.3,1.8-0.8,3.6-1.4,5.4c-0.1,0-0.1,0-0.2-0.1
		c1.8-5-0.8-9.7-3.4-13.7c-0.6-1.1-1.1-2.3-1.3-3.5c-0.1,2.4,0.1,4.9,0.6,7.3c0.6,3,1.6,5.9,2.4,8.8c0.5,1.9,0.5,3.9,0.1,5.8
		l0.3-0.2c1.9-3.5,5.7-6.3,6.9-10.2c1.1-3.2,1.4-6.6,0.9-10C99.5,29.7,99.1,28.4,98.6,27.2z M49.9,28.3l0.1,0.9L49.6,29h-0.3
		l-0.1-0.2H49v0.8l0.2,0.2l0.2,0.2h0.4l0.1,0.4h0.9l0.1,0.2h0.5l1,1l-0.1,0.3L52.1,32c0.1,0.2-0.5,0.1-0.5,0.1v0.2h0.2l0.2,0.2
		l0.4-0.6c0.4-0.2,0.6,0.1,0.6,0.3c0,0.1,0,0.2-0.1,0.2c0,0-0.1,0-0.1,0v0.5l0.2,0.1c0.2,0.2,0.2,0.4,0,0.6c0,0-0.1,0.1-0.1,0.1
		L52.9,34c-0.1,0.3-0.5,0.3-0.5,0.3l-0.1,0.2l-0.4,0.1l0.8,0.1c0.1-0.3,0.3-0.4,0.4-0.2c0.1,0.1,0.1,0.3,0.1,0.4h0.2v0.4l0.2,0.1
		v1.1l0.2,0.3c0.4-0.2,0.4,0.1,0.2,0.2S54,37.8,54,37.8L53.8,38v0.3l-0.2,0.1v0.4c-0.3-0.2-0.6-0.2-0.9,0c-0.3-0.2-1-0.2-1,0
		c0.2,0.3-0.2,0.4-0.2,0.4l-0.2,0.3c0.2,0.4-0.2,0.4-0.2,0.4v0.7l-0.4,0.4v0.6c-0.2,0-0.4,0-0.7,0c-1.6,0-3.2-0.6-4.5-1.7l0.1-0.1
		c0.1-0.2,0.3-0.3,0.5-0.3l0.1-0.2h1c0.1-0.4,0.5-0.2,0.5-0.1s0.4,0,0.4,0l0.2-0.4h0.4v-0.4l0.2-0.1v-0.7c0.3-0.1,0.5-0.4,0.5-0.7
		l0.2-0.2l-0.1-0.2c-0.3-0.1-0.1-0.4,0-0.3s-0.2-0.3-0.2-0.3c-0.2,0.2-0.4-0.2-0.4-0.2h-0.5v-0.5l-0.1-0.5l-0.5-0.2l-0.4,0.4
		l-0.1,0.5v0.3l-0.3,0.1l-0.1,1l-0.3,0.1v0.4L46,37.2l-0.4,0.1l-0.1,0.5L45.3,38l-0.2,0.4l-0.2,1c-0.5-0.5-0.9-1.1-1.2-1.8
		c0-0.2,0.1-0.3,0.1-0.5c-0.3-0.1-0.2-0.7,0.2-0.2s-0.2-0.9-0.2-0.9l-0.3-0.2h-0.4c-0.1-0.4-0.1-0.7-0.1-1.1c0-0.1,0-0.3,0-0.4
		c0.1,0,0.2,0,0.2,0l0.2,0.2l0.3,0.2V35l-0.2,0.1v0.3l0.1,0.4H44c0.1-0.3,0.4-0.6,0.7-0.5c0.3,0,0.5,0.3,0.5,0.5l0.2-0.5
		c-0.5-0.2,0-0.6,0.1-0.5s0.5-0.5,0.5-0.5s0.2,0.3,0-0.1c-0.1-0.2-0.1-0.5,0.1-0.6c0,0,0,0,0.1,0c-0.1-0.4,0.5-0.4,0.5-0.4v-0.6
		h-0.5c-0.1,0.5-0.5,0.1-0.3,0c0.2-0.1,0.3-0.2,0.4-0.3V32l0.2-0.1v-0.4H47l0.5-0.2l0.1-0.2h0.5l0.7-0.7l-0.1-0.3
		c-0.4,0,0-0.3,0-0.3l0.1-0.5h-0.4l-0.1-0.8C48.8,28.5,49.4,28.3,49.9,28.3z M71.6,30.4v0.3h0.2v-0.3L71.6,30.4L71.6,30.4z
		 M71.5,31.4l-0.1,0.2l0.2,0.1l0.1-0.2L71.5,31.4z M34.5,32.8c0.2,0,0.4,0,0.6,0.2h0.5c0.1,0.1,0.2,0.2,0.3,0.3c0,0.3-0.1,0.7-0.1,1
		l-0.1,0.2c0,0.1-0.1,0.2-0.1,0.3h-1.4l0,0h-0.4c-0.4-0.2-0.2-1.2-0.2-1.2C33.8,33.2,34.1,32.9,34.5,32.8L34.5,32.8z M46.9,33.5
		l-0.1,0.2h-0.2v0.3h0.2v0.2l-0.1,0.2l-0.1,0.2l-0.3,0.1l-0.6,0.6v0.3l-0.2,0.2l-0.2,0.5h-0.8l-0.1,0.7l0.1,0.5l0.6,0.2l0.1-0.3
		l0.2-0.1v-0.4l0.1-0.2l0.2-0.2l0.1-0.3l0.3-0.2l0.4-0.1l0.2-0.2l0.1-0.4l0-0.3l0.2-0.2l0.4-0.2v-0.7h-0.2v-0.2L46.9,33.5L46.9,33.5
		z M69.2,33.7v0.2l0.4,0.1v-0.2L69.2,33.7z M68.3,34L68.3,34L68,34.2l-0.2-0.2l-0.1,0.2l0.3,0.2l0,0H68l0.2-0.1v0.1l0.2-0.1
		l-0.1-0.2L68.3,34L68.3,34z M71.4,35.5h5.8c-0.1,3.8-0.9,7.6-2.6,11l0,0c-1.3,2.7-3,5.2-5.1,7.3l-0.2-0.2c0-0.4,0-0.9,0-0.9
		l-0.2-0.2v-0.9c0.1-0.5-0.7-1.2-0.8-1s-0.5,0-0.5,0.2s-0.3,0.9-0.1,1.1l0,0l-2.3-2.1C69.2,46,71.3,40.8,71.4,35.5L71.4,35.5z
		 M78.1,35.5h6.4c-0.1,5-1.2,9.9-3.4,14.4l0,0c-1.6,3.3-3.8,6.4-6.4,9l-4.5-4.5c2.2-2.2,4-4.8,5.3-7.6l0,0
		C77.1,43.3,78,39.4,78.1,35.5z M65.6,35.5h5c-0.1,5.1-2.1,10-5.7,13.7c0-0.5-0.1-1-0.2-1.5l-0.3-0.2l0.1-0.9h-0.4l-0.7,0.8
		l-0.1,0.2l-0.4-0.4l0.2-0.2v-0.4l0.2-0.2v-0.4l0.2-0.1v-0.8h0.2v-1.8L63.2,43c0,0.2-0.6,0.2-0.6,0.2s-0.2,0.2-0.2,0.2
		s0.1,0.3,0.1,0.5s-0.4,0.2-0.4,0.2l-0.5,0.2l-0.2,0.2h-0.6v-0.3c0.1-0.1,0.1-0.1,0.2-0.2l0.4-0.1l0.4-0.2l0.2-0.4
		c0-0.4,0.5-0.3,0.5-0.3s0.8-0.7,0.9-1s0.3-1.2,0.8-1.2H65c0.4-0.2,0.2-0.6,0.2-0.6l0.5-0.1l0.1,0.2c0,0,0.6,0.1,0.7,0
		s0.2-0.4,0.4-0.2s0.8-0.2,0.8-0.2c0-0.2,0.9-0.2,0.9-0.2l0.1-0.3c0,0-0.6-0.8-0.7-0.8s-0.7-0.5-0.8-0.3c-0.6-0.1-0.5-0.9-0.5-0.9
		l-0.2-0.5c0-0.3-0.5-0.9-0.6-0.8C65.7,35.9,65.6,35.7,65.6,35.5L65.6,35.5z M29.3,35.5h2.5v0.2l-0.5,0.6l0.1,0.6l-0.3,0.1L31,37.2
		l-0.1,0.8h0.3c0.2-0.1,0.2,0.5,0,0.5s-0.5,0.2-0.3,0.4s-0.6,0.1-0.6-0.1s-0.4-0.4-0.5-0.3s-0.2-0.1-0.2-0.2
		C29.4,37.3,29.3,36.4,29.3,35.5L29.3,35.5z M33,35.5h0.2c0.1,0,0.1,0,0.2,0h0.5l0-0.1h1.7l0.2,0.9l-0.5,0.4c-0.4,0.2-0.4,0.7,0,0.8
		s0.2,0.7-0.2,0.2c-0.6,0,0.4,0.6,0.1,0.4c0.6,0.3,0.5-0.3,0.5-0.3l0.3-0.3c0.2,0.7,0.4,1.4,0.6,2.1l0,0c0.6,1.8,1.7,3.5,3,4.9
		L35,49.2c-0.3-0.3-0.6-0.6-0.8-0.9c0-0.2,0.1-0.3,0.2-0.5c0.5-0.3-0.1-0.8-0.1-0.8c0-0.3-0.1-0.7-0.2-0.9c-0.4-0.3-0.6-0.8-0.5-1.3
		v-0.6c-0.5-0.5,0.2-0.6,0.2-0.6c0.1-0.3,0.1-0.6-0.2-0.8v-0.5L33,42.4L33,40.8L31.7,39c-0.2-0.1-0.1-0.5-0.1-0.5
		c0.3-0.2-0.1-0.6-0.1-0.6v-0.8l0.8-0.1l0.2-0.3h0.4v-0.9C32.9,35.6,33,35.5,33,35.5L33,35.5z M41.9,35.5h0.4c0,0.2,0,0.5,0.1,0.7
		l-0.2,0.1l-0.1-0.2L42,36.5h-0.6v-0.4l0.4-0.1l0.1-0.2L41.9,35.5L41.9,35.5z M52.5,36c-0.1,0-0.1,0-0.2,0.2v0.5
		c0.2,0.3,0.4,0.6,0.7,0.9c0.2,0.1,0.5-0.1,0.3-0.3c-0.5-0.3-0.5-0.8-0.6-1.1C52.6,36,52.6,36,52.5,36z M33.9,36.3v0.2H34
		c0.1,0.6,0.1,1.2,0,1.7c0,0-0.4,0-0.5-0.2s-0.2,0.5-0.1,0.6s0.6,0,0.7,0.4s0.3-0.2,0.3-0.2v-2.5L33.9,36.3L33.9,36.3z M51,37
		l-0.6,0.5c0.3,0,0.3,0.4,0.4,0.5c0.1,0.3,0.1-0.5,0.2-0.5S51,37,51,37L51,37z M36.8,37.3c0.3,0.1,0.5,0.4,0.6,0.7
		c0.5,0.1,0.9,0.1,1.4,0c0.3,0.2,0.5,0.5,0.5,0.9c0.4-0.5,1.2,0,0.6,0.2c0.6,0.4,0.6,0.7,0.6,0.7C41,39.6,41,40,41,40.1
		c0.1-0.2,0.1-0.4,0.1-0.5c-0.5-0.4,0.7-0.5,0.3,0.2l-0.2,0.3l0.4,0.3v0.8c0.8-0.1,0.6-1,0.6-1l0.4-0.1c0-0.3,0.2-0.1,0.2-0.1
		c-0.2-0.8,0.2-1.2,0.4-1.3c0.3,0.5,0.6,1,1,1.5l-4.1,4c-1.2-1.3-2.2-2.8-2.8-4.5C37,38.8,36.8,38,36.8,37.3L36.8,37.3z M69,38.1
		c-0.3,0-0.7,0.2-0.6,0.3s0.6,0.2,0.7,0.2s0.3,0.1,0.1-0.3C69.3,38.2,69.1,38.1,69,38.1z M35.1,38.6c-0.1,0-0.2,0.1-0.2,0.1v0l0,0
		c0,0.1,0.1,0.2,0.1,0.2h0c0.1,0,0.2-0.1,0.2-0.1v0C35.3,38.7,35.2,38.6,35.1,38.6C35.2,38.6,35.1,38.6,35.1,38.6z M34.8,39.1
		l-0.5,0.4l-0.3-0.2v0.9l0.6,0.8l0.2-0.5l0.1-0.3l-0.3-0.1v-0.5h0.2L34.8,39.1L34.8,39.1z M47.9,40h-0.3v0.5l0.2,0.2l0.4,0.1
		c0,0,0.5-0.1,0.6-0.6h-0.8L47.9,40z M52.4,40.3c0.3,0,0.2,0.7,0.2,1c-0.2,0.1-0.4,0.2-0.7,0.2v-0.8L52.4,40.3L52.4,40.3z
		 M44.9,40.7c1.2,1.1,2.8,1.8,4.4,1.9l0,0c0,0-0.1,0.3,0,0.4c0.1,0,0.1,0.1,0.2,0.2l-0.1,0.2c-0.1-0.2-0.2,0.1-0.1,0.2
		s-0.2,0-0.2,0.1s-0.1,0.2,0,0.2c0.1,0.1,0,0.1-0.1,0.2s0.5,0.1,0.5,0.1s-0.1-0.2,0-0.2h0.1v0.4h-0.2v0.2h-0.3l0.2,0.3h0.2v0.6
		c0,0.5-1.2,0.2-1.3,0v0.6H48v0.4v0.6l0.4-0.1v0.2h1l0.2-0.2v0.7l-0.7,0.1L48.7,48l-0.1-0.2h-0.3L48,48c-0.8-0.1-1.7-0.3-2.5-0.6
		l0,0c-1.8-0.6-3.4-1.6-4.8-2.9L44.9,40.7z M10.9,41c0.5,3.1-0.8,5.9-1.1,8.9c-0.2,2.4,0.1,4.8,1.1,6.9c0.4,0.5,0.7,1.1,0.9,1.7
		c-0.9-0.9-1.6-1.8-2.2-2.9c-3-4.8-9.2-7.9-9.6-13.7c-0.3,2.6,0,5.2,0.9,7.6c1.3,3.1,3.5,5.8,6.2,7.7c2.8,2.2,6.1,3.8,8.6,5.8
		c-0.6-1.2-1.2-2.4-1.6-3.7C12.6,53.4,13.4,46.5,10.9,41L10.9,41z M89,41c-2.6,5.5-1.7,12.4-3.2,18.3c-0.5,1.3-1,2.5-1.6,3.7
		c2.5-1.9,5.8-3.6,8.6-5.8c2.7-2,4.9-4.6,6.2-7.7c0.8-2.4,1.1-5.1,0.9-7.6c-0.4,5.8-6.7,8.9-9.7,13.7c-0.6,1.1-1.3,2-2.2,2.9
		c0.3-0.6,0.6-1.2,1-1.7c1-2.1,1.4-4.5,1.2-6.9C89.8,46.9,88.5,44.2,89,41L89,41z M58,41.1c0.1,0,0.2,0,0.1,0.2
		c-0.1,0.1-0.1,0.3,0,0.5c0.2-0.2,0.5-0.2,0.7-0.1c0.1,0.1,0.1,0.1,0.2,0.2c0,0.1,0.2,0.2,0.4,0.1s0.4,0.3,0.3,0.5s-0.7,0.2-0.7,0
		s-0.2-0.1-0.2,0c-0.1,0.1-0.3,0.2-0.5,0.1l-0.2-0.2c0,0,0-0.1,0-0.1c-0.1,0-0.1-0.1-0.2,0L57.6,42c0-0.2,0.1-0.5,0-0.6
		S57.8,41.2,58,41.1L58,41.1z M34.8,41.3h-0.2v0.3h0.3L34.8,41.3L34.8,41.3z M79.4,41.6c-0.2,0-0.3,0.1-0.4,0.2L79,42
		c0.1-0.1,0.2-0.1,0.3-0.1l0,0h0.2c0-0.1-0.1-0.1-0.1-0.2c0,0-0.1,0-0.1,0L79.4,41.6z M34.9,42c-0.1,0-0.1,0.1-0.1,0.2
		c0,0.1,0.1,0.1,0.1,0.1c0.1,0,0.1-0.1,0.1-0.2C35.1,42,35,42,34.9,42z M52.7,42.1c0,0.1,0,0.1,0.1,0.2l0.2,0.1l-0.3,0.2L52.3,43
		l-0.4-0.1h-0.4l-0.2-0.2h-0.2v0.5l-0.2,0.2l-0.4,0.4c0.5,0,0.2,0.2-0.1,0.3v-1.5c0.5,0,0.9-0.1,1.4-0.2l0.1,0.1h0.3v-0.2L52.7,42.1
		L52.7,42.1z M35.2,42.7c-0.1,0-0.2,0.1-0.2,0.1v0l0,0c0,0.1,0.1,0.2,0.2,0.2c0.1,0,0.2-0.1,0.2-0.2C35.3,42.8,35.2,42.7,35.2,42.7z
		 M48.6,42.8c-0.2,0-0.3,0.5-0.4,0.7s0.1,0.3,0.2,0.3c0.2,0,0.3-0.1,0.4-0.1c0.1,0,0.2-0.2,0.2-0.5c0.1-0.1,0.1-0.2,0-0.3
		c0,0-0.1,0.2-0.3,0C48.7,42.8,48.7,42.8,48.6,42.8L48.6,42.8z M34.5,43.1h-0.3v0.2h0.3V43.1L34.5,43.1z M55.9,43.1h0.2v0.2l1.1,0.1
		l0,0c0.4,0.2,0.2,0.6,0.1,0.7c-0.1,0-0.3,0.1-0.4,0.1l-0.1,0.1l-0.9,0.1l-0.1,0.4c-0.3,0-0.5,0.2-0.6,0.4c0,0.1,0,0.2,0,0.2
		c0.1,0.2,0.1,0.3,0,0.5l0.4,0.2l0.5-0.1c0.1-0.4,0.4-0.4,0.7-0.7s0.8,0.4,0.6,0.7V46c-0.5,0.4-1.1,0.7-1.7,1l0,0c-1,0.5-2,0.8-3,1
		l0,0l-0.4-0.1v-0.5c-0.1-0.4-0.8-0.4-0.7-0.1s-1.3,0.1-1.3,0.1v-1l0.4-0.4l0.8-0.2c0.1-0.4,0.4,0.1,0.4,0.1c0.3,0,0.4,0.2,0.4,0.2
		l0.5,0.1c0.4,0.1,0.2,0.2,0.2,0.3c0,0.1,0.1,0.2,0.2,0.2c0,0,0,0,0.1,0l0.1-0.5h0.2l-0.2-0.2l-0.4-0.1l-0.4-0.2
		c-0.3-0.4,0.1-0.3,0.4-0.3h0.5c0.2,0.3,0.4,0.6,0.5,0.9c0,0.2,0.2,0.2,0.2,0.2h0.3l0.1,0.2h0.4l0.1,0.2h0.6v-0.3l-0.6-0.1v-0.4
		L54.6,46c-0.2-0.6,0.1-0.8,0.3-0.5h0.2l-0.1-0.5l0.2-0.1l-0.1-0.8L55,44v-0.2h0.9C55.9,43.6,55.9,43.3,55.9,43.1L55.9,43.1z
		 M81.7,44.8l-0.2,0.1c0,0,0,0.1,0,0.1c0,0.1,0,0.1,0.1,0.2c0,0,0.1,0,0.1,0V45l0,0l0,0C81.7,44.9,81.7,44.9,81.7,44.8L81.7,44.8z
		 M81.5,45.2h-0.2c0,0.2,0.1,0.4,0.1,0.4l0.2-0.1C81.6,45.6,81.5,45.4,81.5,45.2L81.5,45.2z M64.8,45.4v0.7H65v-0.7H64.8z
		 M57.1,45.6l-0.3,0.2l0.1,0.2l0.3-0.2L57.1,45.6z M80.3,46.1c0,0.2,0,0.4,0.2,0.4v-0.2l0,0c0-0.1,0-0.1,0-0.2L80.3,46.1L80.3,46.1z
		 M51.8,46.5L51.8,46.5z M80.2,46.5c-0.1,0-0.2,0.1-0.2,0.1s-0.1,0.7,0,0.5s0.3,0,0.3-0.4C80.3,46.5,80.3,46.5,80.2,46.5z M58,46.7
		l0.8,0.4c0.1,0.1,0.6,0.1,0.6,0.1l0.2,0.2c0.2,0,0.3,0,0.5,0.2c0.2,0.2,1.1,0,1.1,0l0.2,0.2l0.4,0.1h0.7l0.4,0.4
		c-0.6,0.2-1.3,0.2-2,0.1c-0.3-0.2-0.6-0.3-0.8-0.4c0,0-0.6-0.5-0.7-0.3s-0.6-0.2-0.6-0.1s-0.5-0.3-0.5-0.3l-0.7-0.2l0.5-0.1
		L58,46.7L58,46.7L58,46.7z M52.9,46.8L52.7,47l0.1,0.1l0.1,0.2l0.2-0.4L52.9,46.8z M19.3,48.8v0.4h0.3v0.5h0.2v-0.5L19.5,49v-0.2
		H19.3z M71.4,49v0.3h0.3V49L71.4,49L71.4,49z M71.1,49.7L71,49.9h0.1v0.2v0.1l0.2,0.2c0.1-0.1,0.1-0.2,0.1-0.4
		C71.3,49.8,71.2,49.7,71.1,49.7L71.1,49.7z M64.8,50.4l1.6,1.6c-0.1,0.3-0.3,0.4-0.4,0.3s0.2,0.2,0.2,0.3c0,0.1,0.2,0.1,0.2,0.1
		c0,0,0.1-0.1,0.1-0.1c0-0.1,0.1-0.3,0.1-0.4l0.7,0.7c-0.1,0.2-0.2,0.4-0.2,0.5l0,0l0.3,0.1v0.6c0.4,0.2,0.8,0.3,1.2,0.2l0.1,0.2
		c-1.3,1.3-2.7,2.4-4.3,3.4v-0.3c0.6-0.5,0.7-1.3,0.1-1.4s-0.2-0.5,0.2-0.6l0.2-0.1V55l0.8-0.8v-0.6l-1.8-1.5
		c-0.4-0.1-0.4-0.6-0.3-1C64.2,51,64.5,50.7,64.8,50.4L64.8,50.4z M21.1,50.5l0.2,0.6l0.1,0.3l0.3,0.4l0.4,0.4l0.1-0.2l-0.2-0.5
		l-0.2-0.2l-0.2-0.5C21.6,50.7,21.1,50.5,21.1,50.5z M14.1,51c2.2,4.3,1.2,9.8,4,13.9c0.9,1.3,2,2.5,3.2,3.5h-0.1
		c-1-0.5-2-1.2-2.9-1.9c-4.9-4.1-12.3-4.6-15.2-11.2C4,60.1,7.8,64.4,12,67.1c4,2.6,9.1,2.3,13.5,3.8c-4.1-3.3-4.7-8.2-6.5-12.5
		C17.7,55.6,16.1,53.1,14.1,51L14.1,51z M85.8,51c-2,2.2-3.7,4.7-4.9,7.4c-1.8,4.3-2.4,9.2-6.5,12.5c4.4-1.4,9.5-1.2,13.5-3.8
		c4.2-2.7,8.1-7,8.9-11.9c-2.9,6.6-10.3,7.1-15.2,11.2c-0.9,0.8-1.8,1.4-2.9,1.9h-0.1c1.2-1,2.3-2.2,3.2-3.5
		C84.5,60.9,83.6,55.3,85.8,51L85.8,51z M29.9,52.5c0.3,0.1,0.6,0.2,0.8,0.5c0.1,0.1,0.1,0.2,0.2,0.3l-0.5,0.5c-0.3-0.3-0.7-0.7-1-1
		h0.2C29.6,52.7,29.7,52.6,29.9,52.5L29.9,52.5z M51,54.5c0.2,0,0.4,0.1,0.6,0.2c0.3,0.2,0.6,0.2,0.9,0.1l0.4,0.5
		c-0.8,0.1-1.7,0.2-2.5,0.2v-0.8C50.6,54.6,50.8,54.5,51,54.5L51,54.5z M69.5,55.1l4.5,4.4c-6.3,6.1-14.8,9.6-23.6,9.7v-6.3
		c2.6,0,5.1-0.4,7.6-1.1l0.6,0.2l0.2,0.6h0.3l0.2-0.2h0.8l0.4-0.4l0.5-0.1l3.4-2.8C66.2,58,68,56.7,69.5,55.1L69.5,55.1z M53.4,56.1
		l0.1,0.2l0.6,0.2l0.4,0.1l0.1,0.6h0.3l0.1,0.4c0.4,0.3-0.1,0.9-0.1,0.9v0.8l0.3,0.2v0.3l0.5,0.5h0.5l0.9,0.9
		c-2.2,0.6-4.4,0.9-6.7,0.9v-5.6C51.4,56.3,52.4,56.2,53.4,56.1L53.4,56.1z M44.7,56.6l-0.2,0.2l-0.1,0.1l0.1,0.1l0.2,0.2l0.1-0.2
		l-0.1-0.1l0.2-0.1L44.7,56.6L44.7,56.6z M47.3,59.2l-0.1,0.2l0.2,0.1l-0.1,0.1l0.2,0.2l0.2-0.2l0.1-0.1l-0.1-0.1
		C47.6,59.4,47.3,59.2,47.3,59.2z M29.3,61l0.3,0.4v0.3l0.4,0.1l0.1,0.2l0.2-0.1l-0.2-0.5l-0.5-0.4L29.3,61L29.3,61z M21.3,61.4
		c2.6,3.6,3.4,8.8,8.2,10.6c0.9,0.2,1.8,0.5,2.6,0.8c-0.9,0.1-1.8-0.1-2.6-0.3c-6.3-1.3-14,0.4-18.7-4.9c2,3.5,5.2,6.1,9,7.4
		c5.5,1.8,11.2-0.2,16.4-1.5c0.8-0.2,1.7-0.1,2.3-0.4c-2.9-0.4-5.6-1.6-7.9-3.5C27.4,66.8,24.6,63.7,21.3,61.4L21.3,61.4z
		 M78.8,61.4c-3.4,2.2-6.2,5.3-9.4,8.2c-2.3,1.8-5,3-7.9,3.4c0.7,0.2,1.6,0.2,2.3,0.4c5.1,1.3,10.8,3.3,16.3,1.5
		c3.8-1.3,7-3.9,9-7.4c-4.7,5.3-12.4,3.6-18.7,4.9c-0.9,0.3-1.7,0.4-2.6,0.3c0.8-0.4,1.7-0.6,2.6-0.8C75.3,70.2,76,65,78.8,61.4
		L78.8,61.4z M44.8,73c-4.8,0-9.1,2.3-13.4,4.1c-4,1.6-8.6,1.2-12.3-1.1c1.7,2,3.8,3.4,6.2,4.2c4.3,1.7,9.4,0.4,13-1.9
		c2.7-1.7,4.9-4,8.1-4c0.6,0,1.1,0.1,1.7,0.2c-4.3,1.9-8.2,4.5-11.6,7.8c0.6,0.7,1.3,1.3,2,1.8c3.5-3.6,7.5-7.5,11.4-9.1
		c4,1.6,7.9,5.5,11.4,9.1c0.7-0.6,1.4-1.2,2-1.8c-3.3-3.3-7.3-6-11.6-7.8c0.5-0.1,1.1-0.2,1.7-0.2c3.2,0,5.4,2.4,8.1,4
		c3.7,2.3,8.7,3.6,13,1.9c2.4-0.8,4.6-2.3,6.2-4.2c-3.7,2.3-8.3,2.7-12.3,1.1C64.2,75.3,59.9,73,55,73c-1.7,0-3.5,0.3-5.1,0.8
		C48.2,73.3,46.5,73,44.8,73L44.8,73z"/>
</g>
</svg>
